<?xml version="1.0" encoding="UTF-8"?>
<svg height="83" viewBox="0 0 557 83" width="557" xmlns="http://www.w3.org/2000/svg">
 <metadata/>
 <g transform="matrix(.53 0 0 .504 -24.3 -151)">
  <path d="m136 423-13.2.004c-11.5.003-13.7.271-16.5 2-2.12 1.29-3.49 3.05-3.88 5-.646 3.23-2.34 4.12-2.37 1.25-.0535-4.21-5.66-8.25-11.5-8.25-7.15 0-15 6.81-16.1 14-.715 4.47-2.38 5.39-2.38 1.31 0-6.29-8.78-15.3-14.9-15.3-1.16 0-2.11-.45-2.11-1s1.03-1 2.3-1c5.87 0 14.7-9.25 14.7-15.4 0-4.04 1.67-3.09 2.38 1.36.702 4.39 5.24 10.3 9.72 12.6 1.54.797 5.1 1.45 7.9 1.45 4.23 0 5.52-.451 7.55-2.65 1.35-1.46 2.45-3.48 2.45-4.5s.45-1.85 1-1.85 1 .92 1 2.05 1.1 3.15 2.45 4.5c2.38 2.38 2.89 2.45 17 2.45h84.5l82.238-.04h15.9c8.74 0 15.9-.224 15.9-.498l23.2-.0681 22.9.146c0 .182 8.55.33 19 .33h19l48-.089h68l22.038-.032h29.4l46.94-.037h36.3c20 0 36.3-.207 36.3-.461l94.89-.078c0 .4 6.38.733 14.2.58l14.2-.277h51.4l33.3.548 62-.43c0 .208 6.55.378 14.5.378 14.1 0 14.6-.0735 17-2.45 1.35-1.35 2.45-3.38 2.45-4.5s.45-2.05 1-2.05 1 .839 1 1.86c0 3.09 4.85 7.14 8.55 7.14 3.17 0 3.35-.226 5.44-6.75 1.19-3.71 2.38-7.42 2.65-8.25.84-2.58 1.89.472 5.43 15.8l3.31 14.3 4.15-21.3c3.94-20.2 5.59-25.1 6.26-18.3.372 3.72 6.2 44.7 6.52 45.8.128.457 1.71-5.51 3.52-13.2 1.81-7.74 3.69-14.1 4.18-14.1.874 0 1.39 1.56 4.3 13l1.4 5.49 1.64-5.64c.902-3.1 1.64-6.13 1.64-6.74 0-.709 3-1.1 8.5-1.1 4.68 0 8.5-.338 8.5-.75s-.926-2.26-2.05-4.11-1.89-3.52-1.69-3.72c.689-.689 20.7 8.09 20.7 9.08 0 1.04-20 9.75-20.8 9.03-.227-.227.536-1.75 1.7-3.38s2.11-3.23 2.11-3.56-3.34-.596-7.43-.596h-7.43l-1.48 5.25c-.814 2.89-1.78 6.71-2.15 8.5-1.25 6.04-2.26 4.32-6.31-10.8-1.13-4.22-1.11-4.28-5.23 12.8-1.76 7.29-3.55 13.2-3.98 13.2s-1.3-3.71-1.94-8.25c-.636-4.54-2.18-15.4-3.43-24.2l-2.28-16-1.11 5c-.61 2.75-2.37 11.6-3.92 19.7-1.55 8.11-3.26 14.7-3.81 14.8-.55.002-2.56-6.74-4.46-15-1.91-8.24-3.75-14.7-4.1-14.2s-1.21 2.87-1.92 5.49c-1.16 4.31-1.55 4.75-4.24 4.75-4.26 0-8.62 2.93-9.99 6.73-1.47 4.07-2.36 4.15-3.13.275-.389-1.94-1.75-3.7-3.88-5-2.85-1.74-5.05-2-17.1-2l-13.8-.004-60.92.019h-31.9l-52.9619.13592s-4.16808-.14092-15.3181-.14092h-14.4l-91.96.049-72.7-.0443s-32.1811.16844-61.626.072l-16.2-.0327h-56c-29.5121.63121-53.5922.88775-82 0-27.501.79209-54.9974.36106-82.5.042l-33.3-.004-82.432.07h-47.9z" fill="#d40000"/>
  <path d="m137.648 460.536c-.376-.377-.683-18.9-.683-41.2v-40.5h22v60.1l29.1.555-.00065 10.5-.00066 10.5-24.9.268c-13.7.147-25.2-.0409-25.6-.418zm102-.45c-12.3-2.42-23.6-11.5-29.3-23.8-2.86-6.11-3.15-7.64-3.13-16.3.0222-7.49.514-10.8 2.29-15.3 4.41-11.2 13.5-20 24.9-24 4.48-1.58 7.6-1.92 15.2-1.65 8.39.297 10.4.736 16.2 3.62 7.89 3.9 15.3 11.6 19.4 20 2.54 5.24 2.8 6.78 2.82 16.8.0212 10.4-.157 11.4-3.18 17.6-8.48 17.2-26.9 26.6-45.3 23zm13.5-21.9c5.64-4.27 11.3-10.9 13.2-15.4 1.53-3.6 1.53-10.9.00003-14.3-2.63-5.79-11.2-7.29-15.6-2.73l-2.67 2.76-2.68-2.76c-6.58-6.76-17.8.0136-17.8 10.7 0 6.2 5.49 14.6 13.9 21.2 3.09 2.43 5.8 4.43 6.03 4.43.225.00036 2.76-1.78 5.64-3.96zm66.9-17.7c-10.4-22.4-19.1-41.2-19.3-41.7-.195-.512 4.32-.78 10.4-.618l10.8.286 10.5 22.8c5.77 12.6 10.9 22.7 11.4 22.5.527-.177 5.68-10.6 11.4-23.1l10.5-22.8h10.4c5.7 0 10.4.183 10.4.407 0 .396-17.1 37.7-23.3 50.8-1.69 3.59-5.69 12.2-8.88 19.1l-5.8 12.5-9.59.591zm84.5-.412v-41.1h51v17.1h-30v14h25.8l.351 7.27c.559 11.6 1.53 10.8-13.3 10.8h-12.9v15h30v18.1h-51zm116 0v-41.1h20.9l.286 22.3c.158 12.3.155 30.8-.006 41.1l-.293 18.8h-20.9v-41.1zm62.9 39.8c-6.4-1.82-13.4-6.15-16.5-10.2-2.76-3.63-5.8-12.2-4.88-13.7.3-.488 5.47-.887 11.5-.887 8.49 0 10.9.301 10.9 1.35 0 2 3.22 4.56 6.58 5.24 2.14.43 3.7.002 5.68-1.57 5.3-4.19 2.2-11-5.01-11-11.5-.0171-22.9-6.63-27.4-15.8-8.11-16.8 5.89-34.4 27.4-34.4 3.96.003 8.86.467 10.9 1.03 8.91 2.48 17.7 11.6 19.2 19.8l.579 3.26h-11.4c-10.2 0-11.5-.194-12-1.85-.632-2-4.51-4.17-7.46-4.17-2.86 0-7.08 3.89-7.08 6.52 0 3.61 4.06 6.14 11 6.87 15.7 1.64 26.3 11.8 26.3 25.2 0 10.2-5 17.2-16 22.3-6.31 2.91-16.1 3.8-22.4 2.01zm108-39.1c-10.3-22.3-18.6-40.8-18.6-41.2 0-.369 5.1-.67 11.3-.67h11.3l11.3 24.6c6.23 13.5 11.6 24.6 12 24.6.348 0 3.98-7.34 8.08-16.3l7.45-16.3h9.7l7.31 16c6.62 14.5 9.2 18.7 9.55 15.7.209-1.82.392-2.25 5.61-13.1 2.78-5.79 7.56-16 10.6-22.6l5.57-12 11.5-.283c6.34-.155 11.5-.0682 11.5.194 0 .421-11.5 25.7-21.9 48.2-2.04 4.41-6.36 13.8-9.59 20.8l-5.87 12.8h-15.2l-14.1-29.6-6.13 13c-3.37 7.17-6.52 13.7-7 14.5-.622 1.08-2.98 1.59-8.36 1.8l-7.49.29zm106 40c0-.391 12.4-27.2 21.1-45.8 2.73-5.79 7.56-16.2 10.7-23.1l5.77-12.5h10.7l18.8 40.1c10.4 22.1 18.8 40.5 18.8 40.9.004.414-4.62.752-10.3.752h-10.3l-5.39-11h-34.1l-5.03 11h-10.4c-5.73 0-10.4-.171-10.4-.379zm47.8-37.7c-3.68-8.11-5.78-11-5.78-7.94 0 .596-1.57 4.23-3.5 8.08s-3.5 7.42-3.5 7.94c0 .521 3.8.948 8.44.948h8.44zm54.2-3.01v-41.1l21.2.01c20.2.009 21.5.123 26.2 2.38 9.97 4.72 16.4 14 17.2 25 .618 7.81-.813 13.2-5.24 19.6-1.92 2.8-3.48 5.35-3.48 5.68s3.38 6.41 7.51 13.5c4.13 7.1 7.77 13.6 8.1 14.5.521 1.36-.946 1.56-11.4 1.56h-12l-12.6-22.1h-14.6v22.1h-21v-41.1zm38.2-.0349c7.69-2.14 11.2-11.1 7.1-18.1-2.65-4.5-7.04-6.07-16-5.73l-7.76.293-.286 11c-.157 6.03-.0588 11.6.219 12.3.618 1.62 11.3 1.8 16.7.28zm-649-68.6c-.254-.254-.333-10.2-.175-22.1l.288-21.7h6.05l-.314 10.5c-.173 5.8-.0813 10.5.203 10.5.285-.001 5.22-4.74 11-10.5 10.2-10.3 10.6-10.5 15-10.5h4.51l-19.5 19.5 24.4 24.6h-4.47c-4.32 0-4.79-.322-14.6-10.1l-10.1-10.1-3.74 4.15c-3.5 3.89-3.72 4.51-3.47 9.84.254 5.4.14 5.7-2.22 5.99-1.37.163-2.69.0889-2.95-.165zm90.3-.418c-.653-.417-1.65-1.99-2.22-3.5l-1.04-2.74h-24.1l-1.05 3.01c-.921 2.65-1.51 3.01-4.95 3.01-3.45 0-3.79-.207-2.88-1.76.565-.966 5.24-10.8 10.4-21.8 5.14-11 9.92-20.1 10.6-20.1 1.2 0 20.9 40.8 21 43.4.0169 1.37-3.77 1.68-5.67.466zm-7.78-15.5c-.751-1.79-2.72-6.13-4.37-9.63l-3.01-6.37-2.03 4c-1.12 2.2-3.15 6.54-4.51 9.63l-2.48 5.63h17.8zm91.5 15.2c-4.81-1.01-8.28-3.87-10.9-8.96-2.04-4.01-2.25-5.83-2.25-19.8v-15.3h8v15.3c0 16.8.471 18.5 5.96 20.8 2.44 1.02 3.63 1.02 6.08 0 5.49-2.28 5.96-3.92 5.96-20.8v-15.4l7.5.623.272 15c.252 14 .109 15.4-2 19.5-1.25 2.45-3.46 5.32-4.91 6.39-3.28 2.4-9.28 3.54-13.7 2.61zm49.6.476c-.393-.394-.718-4.37-.722-8.83l-.009-8.11-7.49-13c-4.12-7.17-7.49-13.4-7.49-13.8-.0002-.413 1.78-.752 3.95-.752 3.94 0 3.95.004 9.25 9.51 2.91 5.23 5.52 9.52 5.8 9.52.275.008 2.96-4.27 5.97-9.51l5.47-9.52h4.31c5.04 0 5.57-1.76-4.86 16.3-6.75 11.7-6.81 11.8-7.1 20.1l-.29 8.3-3.03.298c-1.67.164-3.36-.024-3.75-.418zm61.1-2.89-2.06-3.51h-23.5l-1.24 3.01c-1.03 2.5-1.81 3.01-4.62 3.01-1.86 0-3.38-.225-3.38-.5 0-2.03 20.5-43.6 21.4-43.3.946.314 21.3 42 21.5 44.1.0425.414-1.29.752-2.95.752-2.41 0-3.46-.725-5.1-3.51zm-4.87-9.9c0-.204-1.98-4.61-4.39-9.78l-4.39-9.41-2.64 5.88c-1.45 3.24-3.53 7.64-4.62 9.78l-1.98 3.9h9.02c4.96 0 9.02-.167 9.02-.371zm87 12.4c-3.93-.928-9.01-6.01-9.01-9.02 0-3.15 5.34-2.73 6.82.538 3.21 7.08 16.2 4.44 16.2-3.29 0-2.93-4-6.03-9.35-7.23-9.81-2.21-13.6-5.73-13.6-12.6 0-7.28 5.39-11.8 14.1-11.7 6.27.0488 10.7 2.44 12.5 6.71 1.89 4.55 1.93 4.48-2.08 4.48-2.26 0-3.5-.476-3.5-1.35 0-4.46-10.1-6.47-13.5-2.7-2.06 2.28-2.33 6.39-.558 8.53.672.812 4.98 2.63 9.58 4.04 9.67 2.96 11.4 4.77 11.4 11.7 0 5.81-3.36 10.3-8.81 11.9-4.17 1.16-5.28 1.16-10.2.0106zm65.3.239c-.653-.417-1.65-1.99-2.22-3.5l-1.04-2.74h-24.2l-1.13 3.01c-.987 2.62-1.62 3.01-4.97 3.01-2.82 0-3.63-.332-3.05-1.25.432-.69 5.1-10.5 10.4-21.8 5.28-11.3 10.2-20.6 10.9-20.6 1.21 0 20.9 40.7 21 43.4.0386 1.37-3.75 1.68-5.65.466zm-9.93-20c-1.96-4.28-3.8-8.34-4.08-9.03-1.16-2.83-2.14-1.41-7.92 11.5l-2.35 5.27h17.9zm66.3 20.2c-.393-.394-.714-7-.714-14.7v-14l-15.4 14.1-5.66-4.93c-3.12-2.71-6.23-5.61-6.93-6.46-.696-.842-1.66-1.53-2.14-1.53-.482 0-.877 6.09-.877 13.5v13.5h-8v-22.1c0-12.5.393-22.1.902-22.1.496 0 5.56 4.27 11.2 9.5 5.69 5.22 10.8 9.5 11.3 9.51.55.009 5.65-4.26 11.3-9.5 5.69-5.23 10.8-9.51 11.3-9.51.541 0 .81 9.19.651 22.3l-.269 22.3-3.03.298c-1.67.164-3.36-.024-3.75-.418zm54.6-.167c-.653-.417-1.65-1.99-2.22-3.5l-1.04-2.74h-24.1l-1.05 3.01c-.914 2.63-1.52 3.01-4.84 3.01h-3.79l10.3-21.8c5.64-12 10.8-21.8 11.5-21.8 1.19 0 21 40.9 21 43.4.0112 1.37-3.77 1.68-5.67.466zm-7.78-15.5c-.751-1.79-2.72-6.13-4.38-9.64l-3.01-6.38-2.95 5.88c-1.62 3.23-3.66 7.57-4.52 9.64l-1.56 3.76h17.8zm-420 13.1c-14.1-7.01-15.4-28.8-2.27-37.5 7.1-4.69 17.5-5.07 23.9-.888l2.28 1.49-2.87 2.42c-2.56 2.16-3.25 2.3-6.41 1.33-5.14-1.58-10.6-.228-14.4 3.59-10 10-.932 26.9 13.1 24.2 3.43-.646 9.52-4.92 9.52-6.68 0-.503-2.25-.914-5-.914-4.89 0-5-.0669-5-3.01v-3.01h19.3l-.558 4.18c-.745 5.57-5.2 11.7-10.6 14.6-5.91 3.13-14.8 3.2-20.9.168zm194-16.9v-3.01h23v6.02h-23z" fill="#1a1a1a"/>
 </g>
</svg>
